<svg xmlns="http://www.w3.org/2000/svg" role="img" viewBox="26.20 43.20 1861.60 351.60"><title>Tremor</title><defs><clipPath id="a" clipPathUnits="userSpaceOnUse"><path d="M0 324.647h1446.361V0H0z"/></clipPath></defs><path fill="#3953a4" d="M144.525 131.947H62.5572V79.40313h223.63545V131.947h-81.5478v227.83143H144.525z"/><g clip-path="url(#a)" transform="matrix(1.33333 0 0 -1.33333 0 432.863)"><path fill="#3953a4" d="M350.878 226.632h-46.98v-58.01h46.98c17.962 0 31.521 11.349 31.521 29.005s-13.559 29.005-31.521 29.005m-14.19-96.473h-32.79V54.813h-44.766v210.282h98.363c43.821 0 70.614-28.69 70.614-67.783 0-37.202-23.328-57.064-46.025-62.421l47.286-80.078h-51.383z"/><path fill="#3953a4" d="M477.657 265.095h148.802v-38.463H522.423v-45.715h101.83v-38.459h-101.83V93.592h104.036V54.813H477.657z"/><path fill="#3953a4" d="M860.12 206.14L800.85 54.813h-19.546L722.033 206.14V54.813h-44.766v210.282h62.738l51.076-131.149 51.068 131.149h63.052V54.813H860.12z"/><path fill="#3953a4" d="M1311.389 226.632h-46.98v-58.01h46.98c17.962 0 31.521 11.349 31.521 29.005s-13.559 29.005-31.521 29.005m-14.189-96.473h-32.791V54.813h-44.766v210.282h98.363c43.821 0 70.614-28.69 70.614-67.783 0-37.202-23.328-57.064-46.025-62.421l47.286-80.078h-51.383z"/><path fill="#97d8e8" d="M1077.575 54.813c-37.492.913-69.818 15.197-96.93 43.063-2.823 2.901-5.186 6.316-7.888 9.364-2.658 2.997-3.448 6.506-1.383 9.847 2.288 3.702 5.539 2.843 8.943 1.135 15.911-7.981 32.315-10.486 49.422-4.767 8.277 2.767 15.102 7.501 20.277 15.146 4.135 6.109 8.014 5.979 11.826-.253 14.325-23.424 34.669-35.982 60.37-38.316 10.299-.935 20.39 1.492 30.123 5.3 1.576.617 3.119 1.335 4.685 1.984 3.598 1.489 7.046 1.894 9.238-2.42 2.143-4.219-.404-6.912-3.182-9.115-22.313-17.689-47.14-28.129-74.942-29.925-3.526-.228-7.039-.689-10.559-1.043"/><path fill="#3953a4" d="M1167.059 160.108c-1.492 6.249-4.171 14.016-7.108 18.798-7.165 11.669-11.521 19.156-21.559 27.904-8.033 6.999-21.692 12.215-28.634 20.528-6.395 7.663-7.09 16.345-1.462 24.537 1.659 2.418 3.633 4.541 5.785 6.459 2.286 2.037 4.691 3.929 7.042 5.885-30.196 3.315-58.617-2.891-85.615-16.776-25.006-12.858-59.546-45.47-65.305-60.971 23.362 8.168 46.241 12.677 68.679 13.545 20.777-34.927 52.433-25.481 52.433-25.481l-7.572 22.174c28.499-5.54 56.257-17.62 83.316-36.602"/></g></svg>