<?xml version="1.0" encoding="UTF-8" standalone="no"?>
<svg
   xmlns:dc="http://purl.org/dc/elements/1.1/"
   xmlns:cc="http://creativecommons.org/ns#"
   xmlns:rdf="http://www.w3.org/1999/02/22-rdf-syntax-ns#"
   xmlns:svg="http://www.w3.org/2000/svg"
   xmlns="http://www.w3.org/2000/svg"
   viewBox="0 0 1928.48 432.86267"
   height="432.86267"
   width="1928.48"
   xml:space="preserve"
   id="svg2"
   version="1.1"><metadata
     id="metadata8"><rdf:RDF><cc:Work
         rdf:about=""><dc:format>image/svg+xml</dc:format><dc:type
           rdf:resource="http://purl.org/dc/dcmitype/StillImage" /></cc:Work></rdf:RDF></metadata><defs
     id="defs6"><clipPath
       id="clipPath22"
       clipPathUnits="userSpaceOnUse"><path
         id="path20"
         d="M 0,324.647 H 1446.361 V 0 H 0 Z" /></clipPath></defs><g
     transform="matrix(1.3333333,0,0,-1.3333333,0,432.86267)"
     id="g10"><g
       transform="translate(108.3936,225.6866)"
       id="g12"><path
         id="path14"
         style="fill:#3953a4;fill-opacity:1;fill-rule:nonzero;stroke:none"
         d="M 0,0 H -61.476 V 39.408 H 106.251 V 0 H 45.09 V -170.874 H 0 Z" /></g><g
       id="g16"><g
         clip-path="url(#clipPath22)"
         id="g18"><g
           transform="translate(350.8779,226.6319)"
           id="g24"><path
             id="path26"
             style="fill:#3953a4;fill-opacity:1;fill-rule:nonzero;stroke:none"
             d="M 0,0 H -46.98 V -58.01 H 0 c 17.962,0 31.521,11.349 31.521,29.005 C 31.521,-11.349 17.962,0 0,0 m -14.19,-96.473 h -32.79 v -75.346 H -91.746 V 38.463 H 6.617 c 43.821,0 70.614,-28.69 70.614,-67.783 0,-37.202 -23.328,-57.064 -46.025,-62.421 l 47.286,-80.078 H 27.109 Z" /></g><g
           transform="translate(477.6572,265.0948)"
           id="g28"><path
             id="path30"
             style="fill:#3953a4;fill-opacity:1;fill-rule:nonzero;stroke:none"
             d="M 0,0 H 148.802 V -38.463 H 44.766 v -45.715 h 101.83 v -38.459 H 44.766 v -48.866 h 104.036 v -38.779 H 0 Z" /></g><g
           transform="translate(860.1191,206.1397)"
           id="g32"><path
             id="path34"
             style="fill:#3953a4;fill-opacity:1;fill-rule:nonzero;stroke:none"
             d="M 0,0 -59.27,-151.327 H -78.816 L -138.087,0 v -151.327 h -44.766 V 58.955 h 62.738 L -69.039,-72.194 -17.971,58.955 H 45.081 V -151.327 H 0 Z" /></g><g
           transform="translate(1311.3887,226.6319)"
           id="g36"><path
             id="path38"
             style="fill:#3953a4;fill-opacity:1;fill-rule:nonzero;stroke:none"
             d="M 0,0 H -46.98 V -58.01 H 0 c 17.962,0 31.521,11.349 31.521,29.005 C 31.521,-11.349 17.962,0 0,0 M -14.189,-96.473 H -46.98 v -75.346 H -91.746 V 38.463 H 6.617 c 43.821,0 70.614,-28.69 70.614,-67.783 0,-37.202 -23.328,-57.064 -46.025,-62.421 l 47.286,-80.078 H 27.109 Z" /></g><g
           transform="translate(1077.5752,54.813)"
           id="g40"><path
             id="path42"
             style="fill:#97d8e8;fill-opacity:1;fill-rule:nonzero;stroke:none"
             d="m 0,0 c -37.492,0.913 -69.818,15.197 -96.93,43.063 -2.823,2.901 -5.186,6.316 -7.888,9.364 -2.658,2.997 -3.448,6.506 -1.383,9.847 2.288,3.702 5.539,2.843 8.943,1.135 15.911,-7.981 32.315,-10.486 49.422,-4.767 8.277,2.767 15.102,7.501 20.277,15.146 4.135,6.109 8.014,5.979 11.826,-0.253 14.325,-23.424 34.669,-35.982 60.37,-38.316 10.299,-0.935 20.39,1.492 30.123,5.3 1.576,0.617 3.119,1.335 4.685,1.984 3.598,1.489 7.046,1.894 9.238,-2.42 2.143,-4.219 -0.404,-6.912 -3.182,-9.115 C 63.188,13.279 38.361,2.839 10.559,1.043 7.033,0.815 3.52,0.354 0,0" /></g><g
           transform="translate(1167.0586,160.1084)"
           id="g44"><path
             id="path46"
             style="fill:#3953a4;fill-opacity:1;fill-rule:nonzero;stroke:none"
             d="m 0,0 c -1.492,6.249 -4.171,14.016 -7.108,18.798 -7.165,11.669 -11.521,19.156 -21.559,27.904 -8.033,6.999 -21.692,12.215 -28.634,20.528 -6.395,7.663 -7.09,16.345 -1.462,24.537 1.659,2.418 3.633,4.541 5.785,6.459 2.286,2.037 4.691,3.929 7.042,5.885 -30.196,3.315 -58.617,-2.891 -85.615,-16.776 -25.006,-12.858 -59.546,-45.47 -65.305,-60.971 23.362,8.168 46.241,12.677 68.679,13.545 20.777,-34.927 52.433,-25.481 52.433,-25.481 l -7.572,22.174 C -54.817,31.062 -27.059,18.982 0,0" /></g></g></g></g></svg>